HIERARCHY
ROOT Hips
{
  OFFSET 122.81 95.2323 -46.7047
  CHANNELS 6 Xposition Yposition Zposition Zrotation Xrotation Yrotation
  JOINT RightUpLeg
  {
    OFFSET -8.9458 -8.66707 0.101652
    CHANNELS 3 Zrotation Xrotation Yrotation
    JOINT RightLeg
    {
      OFFSET 0 -44.4227 1.3727
      CHANNELS 3 Zrotation Xrotation Yrotation
      JOINT RightFoot
      {
        OFFSET 0.253549 -42.0924 -1.46059
        CHANNELS 3 Zrotation Xrotation Yrotation
        JOINT RightToes
        {
          OFFSET 0.04 -4.41509 8.4991
          CHANNELS 3 Zrotation Xrotation Yrotation
          End Site
          {
            OFFSET -0.08 -0.137448 9.77979
          }
        }
      }
    }
  }
  JOINT Spine
  {
    OFFSET 0 11.8905 0
    CHANNELS 3 Zrotation Xrotation Yrotation
    JOINT Spine1
    {
      OFFSET 0 25.6574 0.127663
      CHANNELS 3 Zrotation Xrotation Yrotation
      JOINT HEad
      {
        OFFSET 0 8.73416 0.011341
        CHANNELS 3 Zrotation Xrotation Yrotation
        End Site
        {
          OFFSET -0.29 12.7742 2.51395
        }
      }
      JOINT LeftShoulder1
      {
        OFFSET 8.99 -0.362252 -0.22
        CHANNELS 3 Zrotation Xrotation Yrotation
        JOINT LeftArm
        {
          OFFSET 10.2827 -0.00338 0.322123
          CHANNELS 3 Zrotation Xrotation Yrotation
          JOINT LeftForeArm
          {
            OFFSET 32.7669 0.099144 -1.42434
            CHANNELS 3 Zrotation Xrotation Yrotation
            JOINT LeftHand
            {
              OFFSET 27.5643 0.085362 1.02216
              CHANNELS 3 Zrotation Xrotation Yrotation
              End Site
              {
                OFFSET 16.7443 -0.6 1.50291
              }
            }
          }
        }
      }
      JOINT RightShoulder
      {
        OFFSET -8.99 -0.362252 -0.22
        CHANNELS 3 Zrotation Xrotation Yrotation
        JOINT RightArm
        {
          OFFSET -10.2827 -0.00338 0.322123
          CHANNELS 3 Zrotation Xrotation Yrotation
          JOINT RightForeArm
          {
            OFFSET -32.8971 0.099144 -1.42434
            CHANNELS 3 Zrotation Xrotation Yrotation
            JOINT RightHand
            {
              OFFSET -27.4921 0.085362 1.02216
              CHANNELS 3 Zrotation Xrotation Yrotation
              End Site
              {
                OFFSET -16.6312 -0.6 1.50291
              }
            }
          }
        }
      }
    }
  }
  JOINT LeftUpLeg
  {
    OFFSET 8.9458 -8.66707 0.101652
    CHANNELS 3 Zrotation Xrotation Yrotation
    JOINT LeftLeg
    {
      OFFSET 0 -44.4227 1.3727
      CHANNELS 3 Zrotation Xrotation Yrotation
      JOINT LeftFoot
      {
        OFFSET -0.253549 -42.0924 -1.46059
        CHANNELS 3 Zrotation Xrotation Yrotation
        JOINT LeftToes
        {
          OFFSET -0.04 -4.41509 8.4991
          CHANNELS 3 Zrotation Xrotation Yrotation
          End Site
          {
            OFFSET 0.08 -0.047448 9.77979
          }
        }
      }
    }
  }
}
MOTION
Frames:	20
Frame Time:	0.0166667
122.698 95.8216 -48.1336 2.67859 -0.570062 -128.29 -18.9749 -10.1344 -2.73605 2.80081 25.0301 -0.570769 14.9122 -6.9136 -0.265173 -3.15708 -6.28264 -4.98 -0.977983 4.68428 5.50712 -0.694462 9.18878 11.0839 -13.1635 -10.7122 21.2921 1.59028e-015 -7.55382e-015 3.18055e-015 -12.6694 -60.1064 -5.11239 -4.44199 29.3658 -73.4058 27.8395 10.6518 7.49698 5.33741 2.02835 18.9028 79.8957 -24.105 52.9119 -4.68497 59.08 124.469 -25.7648 15.0429 -27.7067 25.5583 -27.6094 7.64919 -11.5704 45.3937 1.64069 -12.9794 4.02551 1.28651 6.45183 -8.374 0.867261 
121.957 95.5581 -47.0187 3.08493 0.0369998 -130.352 -19.2389 -11.2368 -2.9843 3.17255 25.352 1.00438 15.0141 -6.33385 -0.33887 -2.3401 -5.04057 -5.32395 -0.824233 4.70585 5.05498 -0.049503 9.28815 10.1037 -12.4379 -10.9167 23.3698 7.95139e-016 1.19271e-015 -0 -11.6922 -49.0254 -9.91747 -4.33919 12.8442 -58.7518 25.538 11.0587 9.68379 5.27989 2.04595 19.2066 79.4421 -22.9959 53.8287 -4.76081 58.9523 123.44 -26.6011 15.1202 -27.2805 25.6498 -25.7519 6.15858 -8.51863 43.6328 -0.128857 -13.2067 2.74729 1.17085 6.92742 -8.81753 1.77493 
121.185 95.1836 -45.9225 3.48392 0.717442 -131.682 -19.5097 -12.2767 -2.62348 3.9733 26.2524 1.13888 15.1915 -6.25156 -0.351457 -1.2767 -3.42849 -5.68491 -0.555826 4.70317 4.35244 0.621853 9.33272 8.63394 -11.722 -10.6767 25.3047 7.95139e-016 1.59028e-015 -0 -8.37328 -35.8717 -14.344 -1.47042 -6.77776 -40.273 21.7504 11.0885 10.8417 5.43925 2.10936 19.5633 78.7643 -21.9655 54.4466 -5.921 58.2078 123.729 -26.7535 15.2982 -27.9095 24.9523 -23.7854 4.85652 -3.99991 41.5119 -3.8008 -14.4004 1.08479 1.08208 8.07159 -10.102 2.6189 
120.389 94.7417 -44.8409 3.87949 1.36784 -132.414 -19.8383 -13.2877 -1.8251 5.14466 27.509 -0.0254806 15.324 -6.31557 -0.34489 -0.306455 -1.96405 -5.97694 -0.262622 4.66339 3.56206 1.23124 9.28245 7.00424 -11.1123 -10.1662 26.9245 2.38542e-015 3.97569e-015 3.18055e-015 -3.57226 -25.4145 -17.7774 3.52279 -21.5047 -20.1931 17.747 10.9262 11.3048 5.68513 2.18743 19.8873 78.0527 -21.1383 54.7015 -7.54219 57.0155 124.86 -26.076 15.5055 -29.4531 23.8782 -22.0661 4.05531 0.599328 39.6252 -7.95843 -15.9291 -1.20703 0.895468 9.37163 -11.6802 2.88064 
119.62 94.3207 -43.7906 4.20502 1.90796 -132.782 -20.2287 -14.2676 -0.770926 6.57096 28.8983 -2.14019 15.3212 -6.14471 -0.366826 0.256771 -1.10672 -6.08548 -0.0819729 4.6221 2.87965 1.68578 9.20753 5.60095 -10.8023 -9.69873 28.0266 7.95139e-016 3.18055e-015 6.36111e-015 0.494591 -20.2039 -19.9369 7.27518 -27.8189 -4.48262 15.0084 10.7761 11.4456 5.89039 2.24903 20.1099 77.4585 -20.5145 54.6119 -9.17094 55.5175 126.355 -24.7903 15.6754 -31.5732 22.8899 -20.8748 3.84529 3.89162 38.4455 -10.8942 -16.821 -3.54227 0.616308 10.5122 -13.2642 2.31937 
118.924 94.009 -42.8074 4.39747 2.28844 -132.912 -20.6525 -15.1321 0.35672 8.12396 30.2749 -4.78477 15.1171 -5.59856 -0.433242 0.299192 -1.01077 -5.93715 -0.0766764 4.63247 2.45627 1.92488 9.22455 4.72212 -10.9902 -9.54187 28.3467 -1.59028e-015 -3.18055e-015 9.54166e-015 2.28783 -18.5765 -20.849 7.24402 -29.677 1.04582 14.0411 10.7133 11.4227 6.00507 2.28061 20.2021 77.1149 -20.1695 54.2183 -10.6536 53.9493 127.998 -23.3219 15.788 -33.868 22.2232 -20.3299 4.22467 5.41318 38.0881 -12.0878 -16.5757 -5.07735 0.392725 11.5914 -14.969 1.19124 
118.312 93.8493 -41.9351 4.46796 2.5043 -132.745 -21.045 -15.7356 1.35421 9.68685 31.5982 -7.50947 14.6912 -4.84879 -0.517414 -0.0905144 -1.55495 -5.59682 -0.187743 4.72472 2.34516 1.93719 9.40438 4.4802 -11.7108 -9.68568 27.6934 7.95139e-016 0 -6.36111e-015 1.45412 -18.7043 -20.7739 8.20847 -29.8775 0.404113 14.6853 10.7398 11.312 6.03898 2.28445 20.174 77.1793 -20.3398 53.5528 -12.0093 52.6672 129.8 -22.1308 15.8689 -35.8864 21.8516 -20.3312 5.04833 5.68812 38.251 -12.3602 -15.6321 -5.75829 0.281321 12.5263 -16.5907 -0.0725372 
117.778 93.8358 -41.213 4.4792 2.58972 -132.137 -21.3143 -15.9335 2.06509 11.1547 32.8914 -9.95471 14.1308 -4.28033 -0.57023 -0.670501 -2.40099 -5.2268 -0.327014 4.89292 2.49934 1.73892 9.73251 4.78969 -12.7419 -9.81403 26.1015 3.18055e-015 0 -0 -1.69524 -21.22 -19.9104 6.7927 -28.4943 -8.82386 16.1738 10.715 10.4459 6.02958 2.27199 20.0678 77.7492 -21.2883 52.6618 -13.2634 52.0212 131.783 -21.5816 15.963 -37.1817 21.5916 -20.6542 5.93358 5.54651 38.4587 -12.7479 -14.8223 -6.04159 0.232307 13.1032 -17.7593 -1.23706 
117.314 93.9418 -40.6592 4.48244 2.57499 -130.996 -21.3922 -15.6512 2.45258 12.4319 34.1499 -12.0001 13.6525 -4.30641 -0.552907 -1.0845 -3.00712 -4.9374 -0.481498 5.09396 2.81494 1.35606 10.1177 5.44361 -13.6834 -9.56232 23.8497 -0 -3.97569e-015 -0 -6.40857 -27.392 -18.5149 1.80951 -23.0627 -24.6229 17.9616 10.4931 8.31515 6.04173 2.26137 19.9379 78.7242 -23.0785 51.6338 -14.338 52.172 133.823 -21.7758 16.0889 -37.5349 21.2305 -21.0958 6.48345 5.50059 38.3428 -13.6868 -14.5336 -6.31788 0.194425 13.2031 -18.2431 -2.20698 
116.919 94.1289 -40.2691 4.52599 2.46405 -129.352 -21.2456 -14.9613 2.58805 13.4654 35.3403 -13.7445 13.491 -5.20806 -0.447156 -0.951322 -2.76709 -4.76636 -0.676473 5.26657 3.18649 0.835765 10.4341 6.22741 -14.1979 -8.81981 21.3228 -1.59028e-015 -3.97569e-016 -0 -11.944 -36.9802 -17.0814 -4.76861 -11.6923 -41.8151 20.2652 10.092 5.46855 6.14589 2.26826 19.8063 79.79 -25.4264 50.5734 -15.041 52.9384 135.648 -22.3993 16.2031 -37.1792 20.6443 -21.5826 6.64608 5.78167 37.7978 -15.2642 -14.6129 -6.86759 0.127825 12.7073 -17.7976 -2.86641 
116.591 94.364 -40.0199 4.6647 2.24525 -127.333 -20.8758 -14.0422 2.58765 14.2522 36.3806 -15.3256 13.7555 -6.94431 -0.253948 -0.0905439 -1.39068 -4.74788 -0.936476 5.36145 3.54754 0.233084 10.5848 7.00157 -14.2125 -7.77347 18.8222 -1.59028e-015 -2.78299e-015 -0 -18.2527 -49.0231 -16.1872 -10.3348 5.0456 -56.1853 23.2989 9.55459 2.57673 6.39821 2.30117 19.6545 80.5262 -27.7702 49.5238 -15.1817 53.7924 136.993 -22.8569 16.2404 -36.7021 19.8084 -22.1501 6.67706 6.54037 36.8843 -17.5205 -14.8059 -7.74896 0.0191904 11.6174 -16.3762 -3.1415 
116.329 94.6318 -39.8774 4.93189 1.92811 -125.087 -20.2967 -13.0638 2.53228 14.752 37.1644 -16.7599 14.4154 -9.12598 0.00583368 1.32192 0.839538 -4.88814 -1.25275 5.37158 3.87341 -0.415197 10.5595 7.7105 -13.8958 -6.71859 16.4884 7.95139e-016 1.19271e-015 -3.18055e-015 -26.144 -62.4436 -16.6512 -13.8109 24.2953 -67.0204 26.4978 8.91038 -0.0530788 6.83985 2.36521 19.4638 80.6051 -29.5761 48.4562 -14.797 54.1395 137.833 -22.7 16.1817 -36.6374 18.7736 -22.827 6.76046 7.73811 35.6682 -20.2913 -15.0589 -8.75027 -0.108529 10.1664 -14.3381 -3.10278 
116.122 94.9312 -39.8062 5.30937 1.56562 -122.759 -19.5098 -12.1124 2.43128 14.8215 37.6298 -17.9341 15.392 -11.2757 0.299134 2.9236 3.34653 -5.12189 -1.57553 5.33636 4.1662 -1.08898 10.442 8.35623 -13.4866 -5.88038 14.3567 -7.95139e-016 1.19271e-015 -6.36111e-015 -38.3202 -75.2688 -21.2041 -15.0883 42.3049 -76.2197 29.1259 8.30556 -2.04728 7.4663 2.45707 19.2246 80.0081 -30.6155 47.3733 -14.2573 53.6911 138.469 -21.9199 16.0521 -37.1288 17.642 -23.5383 6.8497 9.09352 34.1817 -23.1698 -15.4137 -9.62118 -0.225947 8.64934 -12.1655 -2.89965 
115.95 95.2564 -39.7783 5.736 1.23166 -120.486 -18.5325 -11.2082 2.28134 14.3526 37.7872 -18.7864 16.5851 -13.1087 0.598342 4.46458 5.74475 -5.36224 -1.853 5.31254 4.44446 -1.7661 10.3514 8.97503 -13.1641 -5.3459 12.4394 -7.95139e-016 -7.95139e-016 3.18055e-015 -52.659 -79.0947 -29.0797 -11.6379 50.1035 -87.6761 30.9702 8.18581 -2.08984 8.19164 2.55654 18.9169 79.0219 -30.9366 46.3624 -14.0041 52.5374 139.214 -20.8864 15.9007 -37.9414 16.5252 -24.1348 6.85767 10.3179 32.475 -25.8016 -15.8117 -10.26 -0.318999 7.25827 -10.1701 -2.64446 
115.805 95.5849 -39.7754 6.14251 0.973429 -118.376 -17.4597 -10.3601 2.13842 13.4809 37.686 -19.4764 17.8109 -14.5736 0.884405 5.88746 7.9653 -5.54195 -2.06675 5.33764 4.72224 -2.41671 10.3661 9.59225 -13.0154 -5.07504 10.7787 7.95139e-016 -1.54058e-015 1.59028e-015 -56.1956 -74.1971 -27.6906 -5.1354 47.7459 -100.229 32.3045 8.62474 -0.241138 8.87736 2.63617 18.5394 78.0222 -30.7155 45.5218 -14.2226 50.9796 140.107 -20.0581 15.7955 -38.7402 15.4981 -24.514 6.79837 11.3009 30.6399 -28.0718 -16.1291 -10.673 -0.383322 6.09497 -8.5079 -2.39652 
115.693 95.8856 -39.7846 6.47601 0.786285 -116.47 -16.4639 -9.58609 2.08442 12.5502 37.3937 -20.2504 18.7979 -15.7492 1.13904 7.21836 10.06 -5.65311 -2.22087 5.41557 4.98361 -3.01418 10.4944 10.1736 -13.0476 -4.96885 9.46558 3.10353e-031 -5.59082e-015 3.18055e-015 -59.1672 -68.9377 -26.0959 0.0823843 44.032 -110.218 33.3074 9.10639 1.57266 9.41229 2.684 18.1591 77.2847 -30.2038 44.8842 -14.7941 49.3816 140.966 -19.6743 15.7818 -39.3302 14.576 -24.684 6.70992 12.0514 28.7944 -30.0003 -16.3257 -10.8778 -0.41725 5.22546 -7.27279 -2.19921 
115.615 96.1343 -39.7984 6.71315 0.633397 -114.756 -15.7031 -8.90145 2.12884 11.8397 36.9861 -21.0993 19.2548 -16.6915 1.3317 8.36737 11.8759 -5.72872 -2.31552 5.52706 5.18938 -3.54447 10.6988 10.6416 -13.2059 -4.95256 8.60491 1.61513e-016 2.76435e-016 -0 -61.8125 -64.0027 -24.6079 3.7204 39.9643 -117.469 34.0878 9.46079 2.83837 9.76551 2.71016 17.8818 76.9277 -29.6529 44.4355 -15.4512 48.0558 141.588 -19.6743 15.8434 -39.6779 13.7379 -24.7241 6.59079 12.6017 27.0589 -31.6279 -16.4653 -10.9011 -0.424585 4.66798 -6.48733 -2.08489 
115.56 96.3175 -39.8139 6.85808 0.491805 -113.217 -15.2191 -8.30939 2.1903 11.3658 36.5333 -21.6071 18.952 -17.3288 1.41268 8.99677 12.8937 -5.72069 -2.35031 5.65108 5.3151 -3.99687 10.9381 10.9482 -13.409 -5.00268 8.24406 -9.93923e-017 7.95139e-016 -0 -64.2676 -59.9746 -23.4747 5.96512 36.4183 -122.349 34.7174 9.59573 3.31491 9.96616 2.72992 17.7662 76.9456 -29.1963 44.169 -15.9577 47.1738 141.861 -19.8754 15.9308 -39.8111 12.9795 -24.7201 6.45448 13.0007 25.5541 -33.0192 -16.6241 -10.8186 -0.418897 4.37467 -6.08262 -2.07445 
115.52 96.4236 -39.8315 6.91206 0.373121 -111.882 -14.9336 -7.80022 2.18656 10.9324 36.1072 -21.189 17.8348 -17.5138 1.34284 8.68291 12.4905 -5.49904 -2.34547 5.78008 5.37569 -4.34897 11.1951 11.118 -13.6039 -5.11424 8.32374 -7.95139e-016 -2.6339e-015 1.59028e-015 -66.5441 -57.1273 -22.8587 7.05768 33.9204 -125.321 35.1894 9.49609 3.00361 10.0573 2.74994 17.796 77.2523 -28.8459 44.0652 -16.2216 46.7516 141.819 -20.1284 16.0043 -39.7738 12.3329 -24.7305 6.34843 13.3105 24.421 -34.243 -16.8209 -10.7532 -0.41367 4.24602 -5.921 -2.18056 
115.497 96.4456 -39.8526 6.8554 0.304934 -110.798 -14.7214 -7.34545 2.09872 10.3002 35.7674 -19.5093 16.1072 -17.1183 1.13231 7.1936 10.309 -4.96659 -2.32567 5.9168 5.40788 -4.57343 11.4712 11.2177 -13.7904 -5.26585 8.70204 1.98785e-016 3.37934e-015 -7.95139e-016 -68.5913 -55.4751 -22.8183 7.22024 32.6439 -126.803 35.4586 9.19578 2.04141 10.0888 2.77253 17.9213 77.6994 -28.5722 44.0373 -16.3092 46.6899 141.626 -20.3163 16.0434 -39.6615 11.8331 -24.7788 6.28597 13.575 23.787 -35.2985 -17.0146 -10.7843 -0.42361 4.20056 -5.8902 -2.40358 
